#!OML:ASF X:\2005_08_12_Meinard\c3d\meinard.ASF
:FULLY-SPECIFIED
:DEGREES
2071
root 4.28775 15.9515 0.185462 131.584 -88.0196 -154.415
lowerback 37.2395 3.13441 -4.41581
upperback 10.4589 1.17116 3.01413
thorax -6.97412 -0.171237 5.14653
lowerneck -8.13398 -12.5329 -7.00609
upperneck -7.68644 -16.2346 17.2453
head 1.10949 -8.18765 5.48913
rclavicle -4.17448e-015 -1.80894e-014
rhumerus -39.7861 16.0884 -96.0138
rradius 77.6124
rwrist 21.8719
rhand -6.7407 -9.33544
rfingers 7.12502
rthumb 19.1202 -38.4156
lclavicle -4.17448e-015 -1.80894e-014
lhumerus -7.28278 -5.57551 96.4464
lradius 39.1172
lwrist -211.663
lhand -16.8745 4.88679
lfingers 7.12502
lthumb 9.35643 34.6591
rfemur -175.765 -183.081 199.628
rtibia 53.5973
rfoot 153.519 163.996
rtoes 7.71781
lfemur -179.472 177.919 -191.731
ltibia 50.7921
lfoot -21.5558 17.3097
ltoes 23.8895
2072
root 4.28572 15.9301 0.209209 135.306 -87.4057 -158.327
lowerback 37.5925 3.16447 -4.60032
upperback 10.5736 1.08736 3.13252
thorax -6.9655 -0.24102 5.40111
lowerneck -8.10767 -12.8296 -7.28705
upperneck -7.64506 -16.6306 17.5978
head 1.22285 -8.38103 5.59085
rclavicle 1.20265e-014 5.1684e-015
rhumerus -39.701 16.0225 -95.943
rradius 78.8445
rwrist 20.8625
rhand -6.62283 -9.37669
rfingers 7.12502
rthumb 19.2335 -38.4456
lclavicle 1.20265e-014 5.1684e-015
lhumerus -6.53489 -6.02703 96.8045
lradius 39.4466
lwrist -211.382
lhand -16.5288 5.31507
lfingers 7.12502
lthumb 9.69003 35.0722
rfemur -176.283 -183.338 199.702
rtibia 54.6145
rfoot 154.053 164.72
rtoes 8.30847
lfemur -179.253 177.467 -191.386
ltibia 51.0912
lfoot -21.8374 17.3298
ltoes 23.6827
2073
root 4.28445 15.9088 0.232697 138.063 -86.7254 -161.26
lowerback 37.9244 3.18559 -4.80657
upperback 10.6863 0.981273 3.23793
thorax -6.94702 -0.32246 5.66244
lowerneck -8.03301 -13.0716 -7.53444
upperneck -7.605 -16.9564 17.8862
head 1.31266 -8.542 5.678
rclavicle 2.68359e-015 2.5842e-015
rhumerus -39.5157 16.1304 -95.8644
rradius 80.1833
rwrist 19.7769
rhand -6.36223 -9.41608
rfingers 7.12502
rthumb 19.4841 -38.4598
lclavicle 2.68359e-015 2.5842e-015
lhumerus -5.89611 -6.33464 97.0681
lradius 39.8103
lwrist -210.977
lhand -16.1383 5.60164
lfingers 7.12502
lthumb 10.0667 35.3409
rfemur -176.852 -183.675 199.787
rtibia 55.6353
rfoot 154.591 165.507
rtoes 8.85721
lfemur -179.027 176.98 -191.026
ltibia 51.384
lfoot -22.1056 17.3781
ltoes 23.5029
2074
root 4.28379 15.8883 0.257426 140.402 -85.96 -163.801
lowerback 38.2613 3.20038 -5.03304
upperback 10.8069 0.851758 3.32996
thorax -6.91611 -0.418084 5.9296
lowerneck -7.89075 -13.3202 -7.97555
upperneck -7.54967 -17.2841 18.2964
head 1.42881 -8.70178 5.82881
rclavicle 1.09332e-015 1.33186e-014
rhumerus -39.2155 16.4691 -95.754
rradius 81.656
rwrist 18.6437
rhand -5.98789 -9.48295
rfingers 7.12502
rthumb 19.844 -38.4899
lclavicle 1.09332e-015 1.33186e-014
lhumerus -5.41521 -6.38406 97.2635
lradius 40.2124
lwrist -210.45
lhand -15.6213 5.74974
lfingers 7.12502
lthumb 10.5655 35.4642
rfemur -177.431 -184.087 199.863
rtibia 56.6314
rfoot 155.121 166.421
rtoes 9.37505
lfemur -178.732 176.468 -190.662
ltibia 51.6528
lfoot -22.3831 17.4504
ltoes 23.2954
2075
root 4.28101 15.8688 0.281916 141.833 -85.0973 -165.434
lowerback 38.5758 3.20664 -5.2588
upperback 10.9138 0.712742 3.43499
thorax -6.88992 -0.518568 6.21501
lowerneck -7.64806 -13.5879 -8.57268
upperneck -7.46595 -17.6354 18.7405
head 1.56108 -8.87179 6.01233
rclavicle 2.5842e-014 2.3059e-014
rhumerus -38.8481 17.0303 -95.6172
rradius 83.2511
rwrist 17.4588
rhand -5.51224 -9.60699
rfingers 7.12502
rthumb 20.3012 -38.566
lclavicle 2.5842e-014 2.3059e-014
lhumerus -5.04946 -6.20131 97.3595
lradius 40.6096
lwrist -209.835
lhand -15.0254 5.79109
lfingers 7.12502
lthumb 11.1403 35.4754
rfemur -178.027 -184.573 200.004
rtibia 57.5773
rfoot 155.671 167.357
rtoes 9.9499
lfemur -178.383 175.912 -190.223
ltibia 51.8983
lfoot -22.6558 17.53
ltoes 23.0906
2076
root 4.27411 15.8504 0.303871 142.954 -84.1747 -166.747
lowerback 38.7927 3.20179 -5.54667
upperback 11.047 0.536421 3.52901
thorax -6.79553 -0.641606 6.53576
lowerneck -7.44177 -13.7684 -8.95924
upperneck -7.32553 -17.8855 18.9661
head 1.66197 -8.99149 6.11001
rclavicle 1.26228e-014 -2.04748e-014
rhumerus -38.3452 17.8385 -95.4735
rradius 84.9843
rwrist 16.3563
rhand -4.93175 -9.7346
rfingers 7.12502
rthumb 20.859 -38.6333
lclavicle 1.26228e-014 -2.04748e-014
lhumerus -4.80045 -5.68847 97.3203
lradius 41.0199
lwrist -209.209
lhand -14.3827 5.65324
lfingers 7.12502
lthumb 11.7601 35.3031
rfemur -178.64 -185.132 200.181
rtibia 58.4663
rfoot 156.316 168.302
rtoes 10.5114
lfemur -177.988 175.317 -189.743
ltibia 52.11
lfoot -22.9327 17.6135
ltoes 22.9259
2077
root 4.26394 15.8327 0.320501 143.773 -83.242 -167.765
lowerback 38.9546 3.18246 -6.11331
upperback 11.1877 0.239944 3.68281
thorax -6.65738 -0.831634 7.11471
lowerneck -7.48782 -13.6937 -8.76715
upperneck -6.90631 -17.8283 18.5308
head 1.71756 -8.94374 5.9466
rclavicle -2.6339e-014 -4.77083e-015
rhumerus -37.7274 19.226 -95.3762
rradius 86.8686
rwrist 15.211
rhand -4.3497 -9.97954
rfingers 7.12502
rthumb 21.4181 -38.8157
lclavicle -2.6339e-014 -4.77083e-015
lhumerus -4.7464 -4.45999 97.1403
lradius 41.4564
lwrist -208.66
lhand -13.6102 5.48595
lfingers 7.12502
lthumb 12.505 35.0918
rfemur -179.23 -185.725 200.392
rtibia 59.2901
rfoot 157.07 169.23
rtoes 10.8647
lfemur -177.545 174.72 -189.234
ltibia 52.2811
lfoot -23.1737 17.6892
ltoes 22.7805
2078
root 4.25003 15.8176 0.332942 144.338 -82.2747 -168.502
lowerback 39.0394 3.14311 -6.91741
upperback 11.3179 -0.163378 3.89073
thorax -6.48156 -1.08094 7.91954
lowerneck -7.76392 -13.3874 -7.95143
upperneck -6.23446 -17.4934 17.3737
head 1.71592 -8.74749 5.49838
rclavicle -4.82053e-015 2.5842e-015
rhumerus -37.0862 21.1195 -95.3131
rradius 88.9299
rwrist 14.0799
rhand -3.84322 -10.26
rfingers 7.12502
rthumb 21.9045 -39.04
lclavicle -4.82053e-015 2.5842e-015
lhumerus -4.92241 -2.43183 96.802
lradius 41.8896
lwrist -208.298
lhand -12.7651 5.3245
lfingers 7.12502
lthumb 13.3196 34.8788
rfemur -179.835 -186.352 200.641
rtibia 60.0491
rfoot 157.798 170.143
rtoes 11.0674
lfemur -177.074 174.106 -188.676
ltibia 52.4125
lfoot -23.4279 17.7793
ltoes 22.6754
2079
root 4.2335 15.8059 0.342158 144.674 -81.3316 -169.007
lowerback 39.0742 3.06433 -7.73065
upperback 11.4564 -0.620148 4.07563
thorax -6.25688 -1.36181 8.72448
lowerneck -8.13969 -13.0265 -7.05249
upperneck -5.3953 -17.0982 16.0694
head 1.76043 -8.51329 4.98994
rclavicle 5.31749e-014 -1.59028e-015
rhumerus -36.4381 23.1305 -95.2319
rradius 91.2894
rwrist 12.9957
rhand -3.42524 -10.5305
rfingers 7.12502
rthumb 22.3058 -39.263
lclavicle 5.31749e-014 -1.59028e-015
lhumerus -5.42127 -0.443473 96.1534
lradius 42.4683
lwrist -207.671
lhand -11.7641 5.0676
lfingers 7.12502
lthumb 14.2844 34.5563
rfemur -180.416 -186.968 200.905
rtibia 60.7288
rfoot 158.377 171.013
rtoes 10.9448
lfemur -176.574 173.54 -188.116
ltibia 52.5004
lfoot -23.6387 17.87
ltoes 22.6109
2080
root 4.21421 15.7957 0.349104 144.722 -80.4029 -169.23
lowerback 39.0235 2.93295 -8.48703
upperback 11.5985 -1.11381 4.24065
thorax -5.97982 -1.66484 9.49001
lowerneck -8.36906 -12.6242 -6.19534
upperneck -4.48781 -16.6477 14.7075
head 1.8074 -8.25564 4.48234
rclavicle 5.39203e-014 -7.69297e-014
rhumerus -35.5274 25.1845 -95.0627
rradius 93.6386
rwrist 11.8923
rhand -3.12406 -10.7446
rfingers 7.12502
rthumb 22.5949 -39.4422
lclavicle 5.39203e-014 -7.69297e-014
lhumerus -6.21532 1.79296 95.3687
lradius 42.9939
lwrist -207.142
lhand -10.6128 4.83545
lfingers 7.12502
lthumb 15.3935 34.2424
rfemur -180.925 -187.571 201.199
rtibia 61.285
rfoot 158.852 171.825
rtoes 10.5719
lfemur -176.047 173.033 -187.543
ltibia 52.5581
lfoot -23.82 18.009
ltoes 22.6007
2081
root 4.19317 15.7871 0.35254 144.532 -79.5027 -169.188
lowerback 38.8315 2.71221 -9.29049
upperback 11.7501 -1.72299 4.37671
thorax -5.60566 -2.03309 10.287
lowerneck -8.30289 -12.0869 -5.34658
upperneck -3.64952 -16.0115 13.3622
head 1.78774 -7.92124 4.01495
rclavicle 1.06449e-013 -8.70677e-014
rhumerus -34.5092 27.4651 -94.9057
rradius 96.0327
rwrist 10.7632
rhand -2.98349 -10.8499
rfingers 7.12502
rthumb 22.7298 -39.531
lclavicle 1.06449e-013 -8.70677e-014
lhumerus -7.24244 4.40498 94.3921
lradius 43.3541
lwrist -206.741
lhand -9.2987 4.68497
lfingers 7.12502
lthumb 16.6589 33.9901
rfemur -181.387 -188.162 201.523
rtibia 61.6842
rfoot 159.331 172.582
rtoes 10.1704
lfemur -175.531 172.664 -186.988
ltibia 52.5838
lfoot -24.0172 18.2167
ltoes 22.3819
2082
root 4.16711 15.7778 0.351628 144.22 -78.6943 -169.073
lowerback 38.6448 2.41829 -10.1754
upperback 11.8779 -2.45197 4.51361
thorax -5.2085 -2.46826 11.1682
lowerneck -7.92591 -11.4486 -4.70257
upperneck -2.91712 -15.2224 11.7827
head 1.84744 -7.53373 3.91152
rclavicle 5.93124e-014 -2.89232e-014
rhumerus -33.3796 30.041 -94.6524
rradius 98.3968
rwrist 9.59754
rhand -3.02338 -10.8018
rfingers 7.12502
rthumb 22.6915 -39.4876
lclavicle 5.93124e-014 -2.89232e-014
lhumerus -8.52522 7.4883 93.3403
lradius 43.49
lwrist -206.591
lhand -7.93189 4.74155
lfingers 7.12502
lthumb 17.9744 33.931
rfemur -181.672 -188.7 201.826
rtibia 61.8869
rfoot 159.758 173.303
rtoes 9.52151
lfemur -174.955 172.476 -186.515
ltibia 52.5827
lfoot -24.1863 18.5362
ltoes 22.239
2083
root 4.13374 15.7692 0.34568 143.892 -77.9199 -168.99
lowerback 38.501 2.0694 -11.0528
upperback 11.9763 -3.25278 4.6187
thorax -4.81498 -2.94306 12.0309
lowerneck -7.64266 -10.7669 -4.11375
upperneck -1.99914 -14.3574 10.5106
head 1.85611 -7.08654 3.44347
rclavicle 6.6891e-014 -3.36443e-014
rhumerus -32.0997 32.7659 -94.2446
rradius 100.719
rwrist 8.47584
rhand -3.1554 -10.5127
rfingers 7.12502
rthumb 22.5648 -39.214
lclavicle 6.6891e-014 -3.36443e-014
lhumerus -10.0504 10.7113 92.1336
lradius 43.4264
lwrist -206.588
lhand -6.60126 4.88907
lfingers 7.12502
lthumb 19.2543 33.9559
rfemur -181.78 -189.232 202.135
rtibia 61.8973
rfoot 160.074 173.906
rtoes 8.68965
lfemur -174.291 172.359 -186.085
ltibia 52.5557
lfoot -24.3508 18.951
ltoes 22.2624
2084
root 4.09773 15.7654 0.338793 143.493 -77.1699 -168.738
lowerback 38.4114 1.61548 -11.7643
upperback 11.9748 -4.11765 4.69706
thorax -4.51841 -3.43055 12.7976
lowerneck -7.49882 -10.0936 -3.72493
upperneck -0.961315 -13.4862 9.28456
head 1.96757 -6.63166 3.01531
rclavicle 4.22417e-016 2.95195e-014
rhumerus -30.6592 35.5695 -93.517
rradius 103.078
rwrist 7.40247
rhand -3.30165 -10.007
rfingers 7.12502
rthumb 22.4244 -38.7252
lclavicle 4.22417e-016 2.95195e-014
lhumerus -11.8687 13.8387 90.7369
lradius 43.2465
lwrist -206.606
lhand -5.53233 5.12187
lfingers 7.12502
lthumb 20.2819 34.0829
rfemur -181.909 -189.701 202.445
rtibia 61.723
rfoot 160.328 174.359
rtoes 7.92411
lfemur -173.725 172.275 -185.671
ltibia 52.5068
lfoot -24.4656 19.3887
ltoes 22.3711
2085
root 4.06 15.7698 0.330267 142.998 -76.4197 -168.175
lowerback 38.3154 1.07156 -12.3123
upperback 11.8455 -5.01031 4.78512
thorax -4.34236 -3.90207 13.499
lowerneck -7.58332 -9.41451 -3.31123
upperneck 0.236963 -12.6022 7.95604
head 2.17783 -6.16979 2.53792
rclavicle -6.12505e-015 9.44227e-016
rhumerus -28.9281 38.385 -92.3178
rradius 105.474
rwrist 6.41011
rhand -3.33427 -9.32099
rfingers 7.12502
rthumb 22.3931 -38.043
lclavicle -6.12505e-015 9.44227e-016
lhumerus -13.9573 16.6996 89.1423
lradius 42.935
lwrist -206.674
lhand -4.89084 5.34291
lfingers 7.12502
lthumb 20.8983 34.2372
rfemur -182.202 -190.089 202.797
rtibia 61.3864
rfoot 160.523 174.497
rtoes 7.40727
lfemur -173.387 172.229 -185.241
ltibia 52.4379
lfoot -24.5499 19.8443
ltoes 22.5653
